<?xml version="1.0" encoding="UTF-8" standalone="no"?>
<!-- Created with Inkscape (http://www.inkscape.org/) -->

<svg
   version="1.1"
   id="svg1"
   width="1507.2737"
   height="562.20288"
   viewBox="0 0 1507.2737 562.20288"
   sodipodi:docname="Akshaya.svg"
   inkscape:version="1.4.2 (f4327f4, 2025-05-13)"
   xmlns:inkscape="http://www.inkscape.org/namespaces/inkscape"
   xmlns:sodipodi="http://sodipodi.sourceforge.net/DTD/sodipodi-0.dtd"
   xmlns="http://www.w3.org/2000/svg"
   xmlns:svg="http://www.w3.org/2000/svg">
  <defs
     id="defs1" />
  <sodipodi:namedview
     id="namedview1"
     pagecolor="#ffffff"
     bordercolor="#cccccc"
     borderopacity="1"
     inkscape:showpageshadow="0"
     inkscape:pageopacity="1"
     inkscape:pagecheckerboard="0"
     inkscape:deskcolor="#d1d1d1"
     inkscape:zoom="0.83789062"
     inkscape:cx="581.22145"
     inkscape:cy="275.69231"
     inkscape:window-width="1366"
     inkscape:window-height="698"
     inkscape:window-x="-6"
     inkscape:window-y="-6"
     inkscape:window-maximized="1"
     inkscape:current-layer="g1" />
  <g
     inkscape:groupmode="layer"
     inkscape:label="Image"
     id="g1"
     transform="translate(-14.363169,-230.89855)">
    <g
       id="g4">
      <g
         id="g3"
         transform="translate(5.96403,-176.43575)">
        <path
           style="fill:#fdf311"
           d="m 180.48208,968.08191 c -2.90217,-0.78129 -7.72469,-2.9865 -10.71672,-4.90048 C 155.75331,954.21803 145.2251,951.21849 115.25875,947.6522 72.807586,942.6001 63.705267,941.00989 45.758745,935.51027 19.392147,927.43036 7.0230159,915.19851 8.5203883,898.68522 c 1.1130912,-12.27536 6.7930387,-20.78998 28.1696777,-42.2282 18.091275,-18.14339 19.474105,-20.37209 15.256825,-24.58937 -2.257344,-2.25734 -3.701361,-2.65751 -11.661667,-3.23169 -9.894977,-0.71373 -13.745539,-2.51504 -15.420133,-7.21363 -1.715746,-4.81404 0.256114,-7.87663 14.332923,-22.26108 14.788659,-15.11187 16.977315,-18.75192 13.551245,-22.53768 -0.933844,-1.03189 -3.113737,-2.14812 -4.844206,-2.48052 -14.136521,-2.71544 -17.646308,-4.90352 -17.646308,-11.00109 0,-8.26012 8.75386,-18.67883 42.077067,-50.07948 30.654428,-28.88584 47.913658,-44.4398 74.922938,-67.52025 25.06214,-21.41656 99.17577,-76.69166 133.5,-99.56637 27.87598,-18.57742 55.85417,-34.40739 119.82108,-67.79442 8.15159,-4.25466 20.14965,-10.7967 26.66236,-14.53788 18.87666,-10.84356 28.89082,-14.30363 41.51656,-14.34468 10.23998,-0.0333 14.60631,1.88794 24.45122,10.7588 8.11432,7.31149 19.3259,13.37103 29.54878,15.97028 3.3,0.83905 18.15,3.814 33,6.61099 31.65148,5.96155 36.29679,7.27335 41.48625,11.71533 3.21903,2.75537 4.06864,4.29845 4.98326,9.05073 2.54408,13.21873 5.417,15.7737 16.81901,14.95758 10.01144,-0.71659 18.62527,-3.53505 53.19048,-17.40404 47.71642,-19.14581 80.8932,-29.00351 101.12524,-30.04699 13.33789,-0.68791 18.59166,0.48516 30.89576,6.89845 28.74717,14.98395 49.73999,19.99984 70.5,16.84479 14.28407,-2.17085 21.93064,-5.44023 50.81634,-21.72715 19.40154,-10.93937 29.92723,-15.11459 41.18366,-16.33631 15.05118,-1.63359 36.60675,-3.1839 37.12085,-2.6698 0.2825,0.2825 -0.6085,2.72802 -1.98,5.43447 -1.3714,2.70646 -3.20168,7.65366 -4.0672,10.99378 -1.68804,6.51438 -2.10975,15.28426 -0.73496,15.28426 1.38063,0 46.24726,-12.78664 51.79176,-14.76025 3.7035,-1.3183 8.6704,-1.90591 17.8583,-2.11272 7.0003,-0.15757 12.5298,0.0869 12.2877,0.54324 -1.8913,3.56543 -3.8965,8.68019 -4.4105,11.24989 l -0.616,3.07984 h 21.0146 c 23.5192,0 34.1888,-1.42752 42.6601,-5.70763 3.36,-1.69762 9.3001,-6.874 17.5753,-15.31558 18.222,-18.58821 29.2445,-25.98213 38.7168,-25.97134 10.6981,0.0122 40.5782,6.90667 75.7832,17.48611 24.3216,7.30886 45.3493,13.03173 64.4355,17.53671 18.5838,4.3864 26.2179,7.40496 32.0981,12.69183 5.5951,5.03042 8.9337,10.27473 11.3859,17.8849 3.5795,11.10854 10.3183,17.90828 22.126,22.32614 2.8909,1.0816 16.4383,4.043 30.1053,6.5809 40.619,7.5427 54.8029,11.3652 67.2103,18.11281 13.8387,7.52604 18.644,13.74243 18.5517,23.9995 -0.1153,12.81628 -6.9004,21.05983 -29.9128,36.34267 -22.2927,14.80495 -24.6975,16.66853 -36.7574,28.48486 -6.4608,6.33032 -13.5914,12.4507 -15.8459,13.60085 -2.4051,1.22697 -7.4667,2.44193 -12.2479,2.93989 -8.6086,0.89661 -11.5105,1.76071 -15.7771,4.69795 -1.4456,0.99518 -17.8706,16.69215 -36.5,34.88213 -110.9614,108.34418 -171.9676,157.7146 -211.8717,171.46127 -12.7443,4.39035 -19.0568,5.40946 -33.5,5.4084 -16.6781,-10e-4 -20.9776,-1.20143 -44.0243,-12.2895 -18.3411,-8.8241 -20.391,-9.59661 -37.4757,-14.12301 -23.1623,-6.13661 -33.1096,-9.36074 -45.49995,-14.74753 -23.84507,-10.36679 -39.39406,-13.16172 -54.5818,-9.81105 -11.70916,2.58323 -18.28848,5.68809 -34.9182,16.4783 -24.6958,16.02389 -34.60163,20.7369 -48.45354,23.05334 -14.6502,2.44993 -26.56714,-0.33693 -46.4502,-10.86273 -14.33171,-7.58699 -22.33515,-10.41172 -39.82673,-14.05645 -29.30271,-6.10582 -35.58431,-7.91534 -55.42013,-15.96466 -9.39753,-3.81349 -10.84421,-4.11828 -19.5,-4.10826 -17.20062,0.0199 -22.39769,2.62873 -56.01343,28.11753 -34.55834,26.20353 -52.43267,34.87165 -71.90797,34.87165 -15.95245,0 -25.28244,-3.03218 -50.03374,-16.2606 -25.89285,-13.83851 -62.70956,-25.16302 -85.75761,-26.37831 -22.07678,-1.16407 -34.97595,4.20116 -59.63665,24.80503 -31.42739,26.2574 -64.76833,52.91168 -82.5,65.95431 -32.27944,23.7433 -61.44648,39.01103 -81.88649,42.86416 -7.57219,1.42743 -22.63349,1.14762 -28.89018,-0.53673 z m 11.71319,-138.38703 c 35.10205,-8.81937 73.13123,-35.9506 129.63029,-92.48239 11.03674,-11.04314 25.7061,-26.13005 32.59857,-33.52647 l 12.53176,-13.44803 14.90143,-1.24799 c 19.48962,-1.63225 20.73792,-1.63884 20.07403,-0.10595 -4.16145,9.60857 -12.41084,32.44256 -14.69887,40.68592 -5.32267,19.17656 -5.84618,37.47719 -1.43798,50.26866 1.98841,5.76986 7.92428,11.41589 13.00375,12.36881 10.55404,1.97995 26.12683,-3.23313 33.47631,-11.20638 4.26748,-4.62967 4.92188,-7.28646 2.41276,-9.79558 -2.15666,-2.15666 -2.42349,-2.09937 -11.31007,2.42857 -13.06677,6.65785 -17.1185,5.05674 -17.1185,-6.76467 0,-13.40282 5.77812,-34.44859 20.38135,-74.23533 2.76588,-7.53572 1.10437,-6.87216 23.77347,-9.49437 22.54009,-2.60728 31.29321,-5.87688 30.64251,-11.44607 -0.57133,-4.88986 -3.58208,-5.32442 -24.93871,-3.59961 -10.55052,0.85209 -19.3423,1.38971 -19.53729,1.19471 -1.23224,-1.23224 25.85612,-56.58778 47.68903,-97.45334 11.85805,-22.19521 13.92546,-34.63138 6.33231,-38.09105 -9.08006,-4.13715 -13.60378,-0.0949 -50.33076,44.97377 -14.93173,18.32313 -49.18916,57.82663 -66.88065,77.12251 -13.96855,15.23533 -17.75238,18.81101 -20.39121,19.26949 -1.78203,0.30962 -11.87009,0.66707 -22.41792,0.79434 -21.2911,0.2569 -22.16222,0.5053 -27.07213,7.71945 -2.96555,4.35729 -2.84792,7.39469 0.38485,9.93759 3.10794,2.4447 7.37407,2.56866 24.11515,0.70068 6.1875,-0.6904 11.25,-0.97555 11.25,-0.63365 0,2.06567 -47.28457,51.93497 -64.83139,68.37528 -33.4941,31.38196 -56.84957,47.06937 -80.66861,54.18357 -12.81825,3.8285 -28.7412,4.4979 -36.57935,1.53777 -17.41607,-6.57728 -23.81771,-23.72752 -19.44392,-52.09107 3.05821,-19.8322 10.21499,-40.56637 22.09077,-64 18.38864,-36.28497 45.90199,-66.55691 72.9325,-80.24499 15.51503,-7.85671 32.0321,-7.71078 41.83502,0.36962 6.04429,4.98221 8.15018,10.01534 8.10676,19.37537 -0.0437,9.42713 -1.4481,14.09053 -9.48616,31.5 -7.07858,15.33137 -7.4028,16.38398 -5.52619,17.94143 3.23781,2.68715 8.21621,-1.86161 17.99438,-16.44143 17.26722,-25.74644 19.1192,-49.44884 4.88858,-62.56616 -8.37687,-7.72153 -18.53275,-10.20014 -36.05713,-8.79997 -15.67866,1.25271 -31.1676,7.41753 -48.99145,19.49931 -33.89664,22.97662 -62.28337,55.2624 -79.89314,90.86682 -24.80669,50.15555 -20.88872,97.53533 9.33182,112.84924 4.93279,2.49964 13.28506,5.17159 18.79751,6.01347 7.431,1.13489 30.18032,-0.22752 38.43652,-2.30188 z M 391.40489,661.39802 c 16.18656,-17.49892 33.92493,-37.58868 39.74534,-45.01397 2.91009,-3.7125 5.48148,-6.75 5.71419,-6.75 0.23271,0 -1.01512,2.8125 -2.77296,6.25 -1.75784,3.4375 -8.02843,17.05 -13.93464,30.25 l -10.73856,24 -3.82976,0.6188 c -2.10636,0.34033 -8.50369,0.90912 -14.21628,1.26396 l -10.38653,0.64517 z m 679.99851,148.27036 c 6.8201,-2.10941 16.2181,-7.83073 24.7256,-15.05242 10.0861,-8.56175 25.6988,-28.67257 37.6381,-48.48191 4.6679,-7.74471 28.3532,-54.51113 35.074,-69.25311 3.0936,-6.7857 9.6906,-17.25731 20.1735,-32.02176 10.8236,-15.24442 10.1745,-25.22513 -1.6405,-25.22513 -7.0888,0 -11.7165,3.54691 -26.4397,20.26495 -45.901,52.12003 -103.0364,94.34648 -105.4851,77.95969 -0.7097,-4.74923 10.2942,-20.25519 33.8682,-47.72464 26.6978,-31.10938 27.9316,-32.81741 27.9375,-38.67742 0.01,-5.31979 -3.4931,-7.82258 -10.9348,-7.82258 -11.0482,0 -23.5035,9.33228 -37.2884,27.93877 -3.896,5.25867 -9.8688,12.48623 -13.273,16.06123 -3.4042,3.575 -9.4489,10.55 -13.4328,15.5 -10.1944,12.66669 -27.3537,29.79581 -35.2666,35.20459 -5.0712,3.46632 -7.88792,4.69347 -11.58952,5.04914 -4.4532,0.4279 -5.09249,0.2142 -7.15567,-2.39193 -5.08007,-6.41697 -0.42633,-18.86335 16.89689,-45.1906 15.6885,-23.84284 21.2349,-33.65312 21.7849,-38.53223 0.4615,-4.09451 0.2636,-4.53654 -3.2206,-7.19403 -2.8436,-2.16894 -5.0932,-2.93136 -9.6144,-3.25839 -4.8629,-0.35175 -5.9023,-0.74446 -5.9023,-2.23002 0,-2.93931 -4.5921,-7.51777 -8.80675,-8.7805 -13.37904,-4.00846 -31.3888,1.23091 -50.09173,14.57261 -13.36109,9.53111 -38.34045,36.25986 -48.59787,52.00136 -2.37271,3.64125 -3.26268,4.25 -6.21341,4.25 -4.00592,0 -5.0506,0.95819 -17.00649,15.59854 -10.15544,12.43565 -23.46545,25.31819 -28.7837,27.85928 -2.2,1.05117 -5.42045,1.91818 -7.15656,1.9267 -4.88826,0.024 -6.34344,-1.8254 -6.34344,-8.06178 0,-9.60056 6.74961,-23.01017 24.11722,-47.91424 17.37059,-24.90834 22.23919,-34.81462 19.70258,-40.08938 -1.90499,-3.96132 -7.39049,-7.31912 -11.95696,-7.31912 -5.8882,0 -12.70848,3.06685 -24.55118,11.03986 -13.58116,9.1434 -38.81835,27.86784 -47.58786,35.30725 -6.52144,5.53231 -9.59085,7.38623 -6.46174,3.90289 0.86461,-0.9625 8.95662,-12.775 17.98223,-26.25 9.02561,-13.475 22.04863,-32.86414 28.94003,-43.08697 15.06055,-22.34108 19.31568,-30.50549 19.31568,-37.06144 0,-8.00877 -5.97651,-11.92289 -13.68491,-8.96248 -4.04194,1.55231 -15.28022,12.6966 -22.50444,22.31624 -15.83039,21.07944 -28.87558,42.89727 -53.6731,89.76727 l -5.54075,10.47263 -5.77422,0.0274 -5.77421,0.0274 -4.77575,7 c -13.4465,19.70908 -28.59674,31.31907 -45.66017,34.99046 -3.18573,0.68545 -3.35544,0.58829 -2.84881,-1.6308 0.29631,-1.29781 1.45581,-6.40966 2.57667,-11.35966 1.12087,-4.95 2.74704,-15.975 3.61371,-24.5 2.96842,-29.19871 6.50285,-42.49456 14.53458,-54.67631 5.52571,-8.38087 6.8409,-12.90687 5.02468,-17.29161 -2.38681,-5.76229 -8.93249,-7.64634 -15.31294,-4.40755 -8.49836,4.31386 -27.26851,22.47508 -70.1513,67.87547 -42.31376,44.79797 -55.24458,56.76525 -69.66195,64.47112 -11.10359,5.93471 -23.37879,7.41362 -30.58333,3.68466 -4.69909,-2.43218 -11.97195,-10.58648 -15.19956,-17.04169 -3.08874,-6.17749 -5.90241,-15.14922 -5.0259,-16.02573 0.26176,-0.26176 2.48872,-0.008 4.94881,0.56415 8.10885,1.88554 24.32476,0.48397 34.6954,-2.99878 29.28131,-9.83351 48.92248,-28.21473 50.11211,-46.89752 0.53152,-8.34738 -1.60739,-13.87027 -7.46153,-19.26643 -6.69089,-6.16744 -12.23269,-8.29296 -22.87309,-8.7728 -11.50244,-0.51872 -20.57337,1.54484 -30.33072,6.89999 -4.04311,2.21899 -7.50841,3.87724 -7.70065,3.685 -0.19224,-0.19224 7.29041,-10.46383 16.62811,-22.82575 22.95855,-30.39417 25.31102,-35.43112 19.21759,-41.14724 -3.29869,-3.09443 -11.57535,-3.06685 -16.62726,0.0554 -8.22031,5.08043 -21.89823,24.00998 -52.83112,73.11562 -20.1817,32.03825 -41.16682,73.39438 -46.37631,91.39548 -3.64779,12.60472 0.1979,21.25027 9.94095,22.34846 4.49006,0.50609 4.82072,0.35915 8.87165,-3.94243 2.47159,-2.62453 7.26415,-10.3785 11.61519,-18.79244 l 7.40744,-14.32432 3.47813,6.90762 c 2.36953,4.70591 5.90513,9.32936 11.09257,14.50553 10.2053,10.18315 15.43545,12.31671 30.11443,12.28473 11.79579,-0.0257 16.40885,-1.07465 26.36465,-5.99493 11.06631,-5.46911 19.26209,-11.44055 33.1674,-24.16572 l 13.03206,-11.92602 2.91929,6.10202 c 4.24507,8.87323 16.1544,20.60536 23.80411,23.44992 14.45271,5.37427 37.14338,0.8391 51.16788,-10.22691 2.89198,-2.28191 5.78114,-3.43125 10.74634,-4.27502 13.32173,-2.26385 28.78078,-12.05097 43.04827,-27.25383 4.2625,-4.54195 7.75,-7.9881 7.75,-7.6581 0,0.33 -1.96964,3.85484 -4.37698,7.83298 -6.14282,10.15104 -13.21961,24.5211 -14.59948,29.64555 -3.21152,11.92667 8.4695,15.96087 18.90814,6.53018 2.09405,-1.89185 8.24343,-9.8529 13.66529,-17.69123 21.5697,-31.18309 37.72243,-48.55918 60.90303,-65.51563 3.85,-2.81625 8.2598,-6.09912 9.79956,-7.29528 3.76296,-2.92323 4.23078,-2.04394 1.1338,2.131 -4.3514,5.86597 -15.17814,25.08236 -18.37515,32.61407 -8.8835,20.92831 -8.04705,37.53929 2.37402,47.14509 9.10418,8.39194 23.55005,8.22084 35.19972,-0.41691 7.86955,-5.83495 16.06901,-13.49576 23.36805,-21.83293 4.125,-4.7117 7.725,-8.57093 8,-8.57608 0.275,-0.005 0.35088,3.13373 0.16863,6.97529 -0.27472,5.79042 0.0984,7.92339 2.18224,12.4751 2.61737,5.71707 8.34818,10.77912 14.96507,13.21868 4.79961,1.76956 16.42871,1.52246 22.18406,-0.47137 8.281,-2.8688 19.08347,-10.937 29.61437,-22.11853 l 9.88563,-10.4964 0.022,4.95619 c 0.0599,13.51429 12.78199,23.82391 27.27992,22.10684 10.00863,-1.18538 24.70663,-9.96514 38.30213,-22.87953 l 7.2008,-6.83998 -1.019,4.01438 c -2.3102,9.1016 2.0986,18.54111 9.8554,21.10111 6.381,2.10589 15.921,0.78661 25.3406,-3.50434 17.0365,-7.7607 33.3171,-19.76548 67.7967,-49.99113 3.396,-2.97699 4.1965,-3.37311 3.2527,-1.60949 -0.6886,1.28665 -3.6113,8.01363 -6.4948,14.94884 -27.6879,66.59228 -50.5182,97.25088 -73.666,98.92524 -10.3247,0.74682 -16.7145,-3.13335 -25.5497,-15.51477 -2.473,-3.46554 -4.8719,-6.30098 -5.331,-6.30098 -1.6301,0 -3.2318,7.30822 -2.66,12.13668 1.1261,9.50782 8.2154,20.41883 15.8877,24.4524 7.0203,3.69076 16.8886,4.24084 25.9272,1.44525 z M 642.64172,734.23189 c -7.77262,-3.61913 -13.23276,-12.066 -13.33908,-20.63564 -0.0374,-3.01349 1.17879,-4.96704 8.20611,-13.18148 12.35803,-14.44568 29.01355,-33.11826 38.92933,-43.64384 l 8.82067,-9.36311 v 4.89297 c 0,10.4332 -6.48102,53.96575 -9.57778,64.33326 -3.1063,10.39943 -7.6237,16.62649 -13.73732,18.93638 -4.95784,1.8732 -13.70735,1.26644 -19.30193,-1.33854 z m 265.94222,-3.18174 c -2.29809,-2.29809 -2.51899,-3.13201 -1.99702,-7.53918 2.70434,-22.83394 51.77276,-79.66846 77.55654,-89.83148 6.0931,-2.40168 11.37944,-2.637 13.08455,-0.58247 1.45453,1.7526 1.44701,1.76895 -9.4488,20.53703 -17.70682,30.50006 -33.7669,52.55559 -47.69486,65.5 -14.66725,13.63148 -25.6358,17.78071 -31.50041,11.9161 z M 506.26813,700.48447 c 0.0394,-5.66339 15.84236,-23.69601 27.86872,-31.80068 20.98972,-14.14514 45.1219,-18.56137 45.1219,-8.25739 0,7.8116 -13.1296,23.63079 -25.91955,31.22916 -12.01767,7.13956 -19.67591,9.32126 -34.33045,9.78011 -10.23926,0.32061 -12.74816,0.1333 -12.74062,-0.9512 z m 725.25297,28.31685 c 6.9498,-3.07446 18.861,-12.2139 29.9876,-23.00948 l 9.75,-9.45988 0.022,5.40104 c 0.05,12.2018 7.2112,19.6692 20.5622,21.44028 18.4962,2.45359 44.7977,-18.09527 69.8075,-54.53923 3.9631,-5.775 7.7463,-11.75868 8.407,-13.29705 1.7238,-4.01358 1.4822,-8.13455 -0.6299,-10.74292 -3.4125,-4.21422 -6.0981,-2.22457 -17.2685,12.79333 -29.7984,40.0622 -49.6349,56.51196 -58.0271,48.11982 -1.8361,-1.83609 -2.0476,-2.89443 -1.5472,-7.74249 0.7481,-7.24871 9.9374,-26.13602 22.6988,-46.6543 21.2556,-34.17555 21.0635,-33.79243 19.0999,-38.10209 -1.3225,-2.90254 -6.6163,-5.3743 -11.5102,-5.3743 -2.9939,0 -3.6918,-0.49546 -5.2821,-3.75 -2.6752,-5.47496 -6.9452,-7.24655 -17.4705,-7.24845 -22.8735,-0.004 -46.7686,13.00465 -73.8669,40.21401 -18.4602,18.53593 -35.1916,45.11728 -38.0737,60.48818 -3.0166,16.08798 3.7437,28.08228 18.5787,32.96308 5.8114,1.91195 18.8332,1.12338 24.7624,-1.49955 z m -17.947,-11.14172 c -8.0229,-3.35199 -4.8935,-18.82383 7.4589,-36.87636 15.9483,-23.30783 47.9719,-55.04949 64.0366,-63.47274 6.9896,-3.6649 17.689,-6.4661 20.5314,-5.37534 3.8126,1.463 2.366,4.49924 -14.5892,30.62201 -17.2926,26.64265 -27.4468,39.78646 -42.2393,54.67563 -16.7246,16.83385 -28.0571,23.41046 -35.1984,20.4268 z m -91.3154,-133.7159 c 0,-0.3797 -4.6013,-6.7922 -10.2253,-14.25 -11.7146,-15.53459 -27.4834,-32.29233 -36.3738,-38.65496 -8.2072,-5.87363 -20.2433,-11.69896 -29.5808,-14.31677 -9.5224,-2.66966 -26.9172,-4.30206 -36.6743,-3.44167 l -7.3542,0.6485 0.6262,4.10263 c 0.9838,6.44591 6.2684,16.1919 11.9142,21.97263 6.3328,6.48404 13.9446,10.24092 30.668,15.13642 17.7405,5.19322 28.4345,9.51498 44.7945,18.10287 15.1934,7.97551 32.2055,13.62782 32.2055,10.70035 z m 59.5181,-11.47659 c -5.8853,-6.14182 -14.7618,-16.60432 -19.7255,-23.25 -16.8329,-22.5368 -26.7308,-30.48162 -43.7926,-35.15118 -6.5206,-1.78461 -36,-3.22631 -36,-1.76059 0,0.53492 2.2958,4.31521 5.1018,8.40065 19.4403,28.3045 44.4938,48.75876 70.2637,57.36473 8.8919,2.9695 21.5332,5.31036 29.4939,5.46155 l 5.3593,0.10178 z m 59.4819,-0.10318 c 0,-0.14857 -4.1941,-4.53607 -9.3204,-9.75 -5.1262,-5.21394 -11.1788,-12.23476 -13.4503,-15.60184 -7.8495,-11.63575 -16.137,-21.21927 -23.2745,-26.9141 -5.2955,-4.2252 -6.8109,-5.94031 -5.8096,-6.57484 0.7452,-0.47216 7.7482,-0.86537 15.5623,-0.87379 l 14.2074,-0.0153 5.4381,6.81567 c 25.3709,31.79784 53.8318,38.6636 106.3574,25.6572 9.3057,-2.3043 12.311,-3.47287 8.9313,-3.47287 -3.3054,0 -15.3632,-6.96762 -31.1417,-17.99524 -25.7775,-18.01604 -40.089,-23.98182 -57.5,-23.96889 -8.6785,0.006 -13.6718,1.322 -26.6801,7.02927 l -5.1801,2.27273 -8.1594,-3.22433 c -4.4877,-1.77338 -12.3942,-4.41457 -17.5699,-5.86931 -5.1758,-1.45474 -9.4105,-2.94077 -9.4105,-3.30229 0,-0.36151 3.6283,-1.38502 8.0629,-2.27445 10.476,-2.10118 17.4905,-5.9432 27.9371,-15.30186 11.4807,-10.28496 16.893,-13.7809 25.6001,-16.53573 4.0502,-1.28145 7.3721,-2.57381 7.382,-2.87193 0.031,-0.93034 -17.2086,-6.94235 -22.8685,-7.97511 -11.9744,-2.18493 -23.3005,-0.15341 -37.1136,6.65691 -8.1226,4.00475 -10.8825,6.07394 -19.0358,14.27202 -6.1209,6.15454 -10.5973,11.66535 -12.5,15.38843 -2.7788,5.43756 -3.1517,5.76777 -5.9642,5.28134 -16.0764,-2.78052 -93.8978,-3.76812 -130,-1.64977 -30.84918,1.81012 -62.63609,7.31598 -83.01999,14.38003 -18.28912,6.33811 -41.47996,16.57291 -41.47996,18.30633 0,0.3277 0.7875,0.28805 1.75,-0.0881 3.12067,-1.21963 43.3968,-9.52795 56.17929,-11.58888 40.08252,-6.46256 80.32226,-8.54325 133.57066,-6.9066 18.7,0.57477 40.525,1.46786 48.5,1.98464 7.975,0.51678 15.005,0.94887 15.6222,0.9602 0.6172,0.0113 1.3982,1.7081 1.7355,3.7706 1.6746,10.23926 12.2682,26.81173 24.7031,38.64517 7.2811,6.92894 10.854,9.47723 18.2466,13.01401 10.3013,4.92836 15.4486,6.32112 27.7318,7.5037 11.2523,1.08335 11.9608,1.13174 11.9608,0.817 z"
           id="path4" />
        <path
           style="fill:#18aa3e"
           d="m 153.75875,831.99676 c -27.46092,-4.19393 -42.80365,-22.53066 -44.19012,-52.81344 -1.77488,-38.76637 19.43553,-84.29861 58.6344,-125.87004 12.77936,-13.55285 38.74157,-33.45347 53.09702,-40.70008 15.56234,-7.85585 33.65476,-11.48416 49.05827,-9.83829 27.08299,2.89381 37.37518,27.93078 23.4749,57.10547 -5.97824,12.54747 -18.62683,30.00074 -22.67244,31.28476 -2.72866,0.86604 -5.10195,-1.28255 -4.33246,-3.92227 0.3381,-1.15985 3.21182,-7.73382 6.38605,-14.60882 8.03806,-17.40947 9.44244,-22.07287 9.48616,-31.5 0.0296,-6.38308 -0.40965,-8.83944 -2.17332,-12.15327 -7.64268,-14.36022 -28.0102,-17.59717 -47.76846,-7.59172 -43.45623,22.00596 -86.17261,86.84927 -95.02327,144.24499 -4.37379,28.36355 2.02785,45.51379 19.44392,52.09107 4.81885,1.81987 7.07871,2.04187 16.57935,1.62869 39.52951,-1.7191 79.55745,-30.79609 152.33903,-110.66173 7.23853,-7.94308 13.16097,-14.72169 13.16097,-15.06358 0,-0.3419 -5.0625,-0.0568 -11.25,0.63365 -16.74108,1.86798 -21.00721,1.74402 -24.11515,-0.70068 -3.23277,-2.5429 -3.3504,-5.5803 -0.38485,-9.93759 4.90991,-7.21415 5.78103,-7.46255 27.07213,-7.71945 10.54783,-0.12727 20.63589,-0.48472 22.41792,-0.79434 2.63883,-0.45848 6.42266,-4.03416 20.39121,-19.26949 17.69149,-19.29588 51.94892,-58.79938 66.88065,-77.12251 36.72698,-45.06869 41.2507,-49.11092 50.33076,-44.97377 7.59315,3.45967 5.52574,15.89584 -6.33231,38.09105 -21.83291,40.86556 -48.92127,96.2211 -47.68903,97.45334 0.19499,0.195 8.98677,-0.34262 19.53729,-1.19471 21.35663,-1.72481 24.36738,-1.29025 24.93871,3.59961 0.6507,5.56919 -8.10242,8.83879 -30.64251,11.44607 -22.6691,2.62221 -21.00759,1.95865 -23.77347,9.49437 -14.60323,39.78674 -20.38135,60.83251 -20.38135,74.23533 0,11.82141 4.05173,13.42252 17.1185,6.76467 8.88658,-4.52794 9.15341,-4.58523 11.31007,-2.42857 2.50912,2.50912 1.85472,5.16591 -2.41276,9.79558 -7.34948,7.97325 -22.92227,13.18633 -33.47631,11.20638 -15.49308,-2.90652 -20.54728,-30.27882 -11.56577,-62.63747 2.28803,-8.24336 10.53742,-31.07735 14.69887,-40.68592 0.66389,-1.53289 -0.58441,-1.5263 -20.07403,0.10595 l -14.90143,1.24799 -12.53176,13.44803 c -6.89247,7.39642 -21.56183,22.48333 -32.59857,33.52647 -56.49906,56.53179 -94.52824,83.66302 -129.63029,92.48239 -8.2562,2.07436 -31.00552,3.43677 -38.43652,2.30188 z m 251.82975,-161.24391 3.82976,-0.6188 10.73856,-24 c 5.90621,-13.2 12.1768,-26.8125 13.93464,-30.25 1.75784,-3.4375 3.00567,-6.25 2.77296,-6.25 -0.23271,0 -2.8041,3.0375 -5.71419,6.75 -5.82041,7.42529 -23.55878,27.51505 -39.74534,45.01397 l -10.4192,11.26396 10.38653,-0.64517 c 5.71259,-0.35484 12.10992,-0.92363 14.21628,-1.26396 z m 646.3877,139.78962 c -5.52,-1.29981 -8.6984,-3.2131 -13.4196,-8.07822 -4.8986,-5.04786 -8.1561,-11.83806 -8.9681,-18.69352 -0.5718,-4.82846 1.0299,-12.13668 2.66,-12.13668 0.4591,0 2.858,2.83544 5.331,6.30098 8.8352,12.38142 15.225,16.26159 25.5497,15.51477 23.1478,-1.67436 45.9781,-32.33296 73.666,-98.92524 2.8835,-6.93521 5.8062,-13.66219 6.4948,-14.94884 0.9438,-1.76362 0.1433,-1.3675 -3.2527,1.60949 -34.4796,30.22565 -50.7602,42.23043 -67.7967,49.99113 -9.4196,4.29095 -18.9596,5.61023 -25.3406,3.50434 -7.7568,-2.56 -12.1656,-11.99951 -9.8554,-21.10111 l 1.019,-4.01438 -7.2008,6.83998 c -13.5955,12.91439 -28.2935,21.69415 -38.30217,22.87953 -14.49793,1.71707 -27.22004,-8.59255 -27.27992,-22.10684 l -0.022,-4.95619 -9.88563,10.4964 c -10.5309,11.18153 -21.33337,19.24973 -29.61437,22.11853 -5.75535,1.99383 -17.38445,2.24093 -22.18406,0.47137 -6.61689,-2.43956 -12.3477,-7.50161 -14.96507,-13.21868 -2.08384,-4.55171 -2.45696,-6.68468 -2.18224,-12.4751 0.18225,-3.84156 0.10637,-6.98044 -0.16863,-6.97529 -0.275,0.005 -3.875,3.86438 -8,8.57608 -7.29904,8.33717 -15.4985,15.99798 -23.36805,21.83293 -11.64967,8.63775 -26.09554,8.80885 -35.19972,0.41691 -10.42107,-9.6058 -11.25752,-26.21678 -2.37402,-47.14509 3.19701,-7.53171 14.02375,-26.7481 18.37515,-32.61407 3.09698,-4.17494 2.62916,-5.05423 -1.1338,-2.131 -1.53976,1.19616 -5.94956,4.47903 -9.79956,7.29528 -23.1806,16.95645 -39.33333,34.33254 -60.90303,65.51563 -5.42186,7.83833 -11.57124,15.79938 -13.66529,17.69123 -10.43864,9.43069 -22.11966,5.39649 -18.90814,-6.53018 1.37987,-5.12445 8.45666,-19.49451 14.59948,-29.64555 2.40734,-3.97814 4.37698,-7.50298 4.37698,-7.83298 0,-0.33 -3.4875,3.11615 -7.75,7.6581 -14.26749,15.20286 -29.72654,24.98998 -43.04827,27.25383 -4.9652,0.84377 -7.85436,1.99311 -10.74634,4.27502 -14.0245,11.06601 -36.71517,15.60118 -51.16788,10.22691 -7.64971,-2.84456 -19.55904,-14.57669 -23.80411,-23.44992 l -2.91929,-6.10202 -13.03206,11.92602 c -13.90531,12.72517 -22.10109,18.69661 -33.1674,24.16572 -9.9558,4.92028 -14.56886,5.96923 -26.36465,5.99493 -14.67898,0.032 -19.90913,-2.10158 -30.11443,-12.28473 -5.18744,-5.17617 -8.72304,-9.79962 -11.09257,-14.50553 l -3.47813,-6.90762 -7.40744,14.32432 c -4.35104,8.41394 -9.1436,16.16791 -11.61519,18.79244 -4.05093,4.30158 -4.38159,4.44852 -8.87165,3.94243 -9.74305,-1.09819 -13.58874,-9.74374 -9.94095,-22.34846 5.20949,-18.0011 26.19461,-59.35723 46.37631,-91.39548 30.93289,-49.10564 44.61081,-68.03519 52.83112,-73.11562 5.05191,-3.12225 13.32857,-3.14983 16.62726,-0.0554 6.09343,5.71612 3.74096,10.75307 -19.21759,41.14724 -9.3377,12.36192 -16.82035,22.63351 -16.62811,22.82575 0.19224,0.19224 3.65754,-1.46601 7.70065,-3.685 9.75735,-5.35515 18.82828,-7.41871 30.33072,-6.89999 10.6404,0.47984 16.1822,2.60536 22.87309,8.7728 5.85414,5.39616 7.99305,10.91905 7.46153,19.26643 -0.73727,11.5786 -7.44794,21.76413 -21.10546,32.03412 -14.81799,11.14261 -32.11902,17.68659 -48.72916,18.43142 -5.775,0.25896 -12.5128,0.003 -14.97289,-0.56924 -2.46009,-0.57204 -4.68705,-0.82591 -4.94881,-0.56415 -0.87651,0.87651 1.93716,9.84824 5.0259,16.02573 3.22761,6.45521 10.50047,14.60951 15.19956,17.04169 7.20454,3.72896 19.47974,2.25005 30.58333,-3.68466 14.41737,-7.70587 27.34819,-19.67315 69.66195,-64.47112 42.88279,-45.40039 61.65294,-63.56161 70.1513,-67.87547 6.38045,-3.23879 12.92613,-1.35474 15.31294,4.40755 1.81622,4.38474 0.50103,8.91074 -5.02468,17.29161 -8.03173,12.18175 -11.56616,25.4776 -14.53458,54.67631 -0.86667,8.525 -2.49284,19.55 -3.61371,24.5 -1.12086,4.95 -2.28036,10.06185 -2.57667,11.35966 -0.50663,2.21909 -0.33692,2.31625 2.84881,1.6308 17.06343,-3.67139 32.21367,-15.28138 45.66017,-34.99046 l 4.77575,-7 5.77421,-0.0274 5.77422,-0.0274 5.54075,-10.47263 c 24.79752,-46.87 37.84271,-68.68783 53.6731,-89.76727 7.22422,-9.61964 18.4625,-20.76393 22.50444,-22.31624 7.7084,-2.96041 13.68491,0.95371 13.68491,8.96248 0,6.55595 -4.25513,14.72036 -19.31568,37.06144 -6.8914,10.22283 -19.91442,29.61197 -28.94003,43.08697 -9.02561,13.475 -17.11762,25.2875 -17.98223,26.25 -3.12911,3.48334 -0.0597,1.62942 6.46174,-3.90289 8.76951,-7.43941 34.0067,-26.16385 47.58786,-35.30725 11.8427,-7.97301 18.66298,-11.03986 24.55118,-11.03986 4.56647,0 10.05197,3.3578 11.95696,7.31912 2.53661,5.27476 -2.33199,15.18104 -19.70258,40.08938 -17.36761,24.90407 -24.11722,38.31368 -24.11722,47.91424 0,6.23638 1.45518,8.08575 6.34344,8.06178 1.73611,-0.009 4.95656,-0.87553 7.15656,-1.9267 5.31825,-2.54109 18.62826,-15.42363 28.7837,-27.85928 11.95589,-14.64035 13.00057,-15.59854 17.00649,-15.59854 2.95073,0 3.8407,-0.60875 6.21341,-4.25 10.25742,-15.7415 35.23678,-42.47025 48.59787,-52.00136 18.70293,-13.3417 36.71269,-18.58107 50.09173,-14.57261 4.21469,1.26273 8.80679,5.84119 8.80679,8.7805 0,1.48556 1.0394,1.87827 5.9023,2.23002 4.5212,0.32703 6.7708,1.08945 9.6144,3.25839 3.4842,2.65749 3.6821,3.09952 3.2206,7.19403 -0.55,4.87911 -6.0964,14.68939 -21.7849,38.53223 -17.32326,26.32725 -21.977,38.77363 -16.89693,45.1906 2.06318,2.60613 2.70247,2.81983 7.15567,2.39193 3.7016,-0.35567 6.51836,-1.58282 11.58956,-5.04914 7.9129,-5.40878 25.0722,-22.5379 35.2666,-35.20459 3.9839,-4.95 10.0286,-11.925 13.4328,-15.5 3.4042,-3.575 9.377,-10.80256 13.273,-16.06123 13.7849,-18.60649 26.2402,-27.93877 37.2884,-27.93877 7.4417,0 10.9402,2.50279 10.9348,7.82258 -0.01,5.86001 -1.2397,7.56804 -27.9375,38.67742 -23.574,27.46945 -34.5779,42.97541 -33.8682,47.72464 2.4487,16.38679 59.5841,-25.83966 105.4851,-77.95969 14.7232,-16.71804 19.3509,-20.26495 26.4397,-20.26495 11.815,0 12.4641,9.98071 1.6405,25.22513 -10.4829,14.76445 -17.0799,25.23606 -20.1735,32.02176 -6.7208,14.74198 -30.4061,61.5084 -35.074,69.25311 -28.9052,47.95868 -57.1597,70.20839 -81.7909,64.40842 z M 661.94365,735.57043 c 6.11362,-2.30989 10.63102,-8.53695 13.73732,-18.93638 3.09676,-10.36751 9.57778,-53.90006 9.57778,-64.33326 v -4.89297 l -8.82067,9.36311 c -9.91578,10.52558 -26.5713,29.19816 -38.92933,43.64384 -7.02732,8.21444 -8.2435,10.16799 -8.20611,13.18148 0.15845,12.7716 10.88672,23.00525 24.14101,23.02803 3.12669,0.005 6.95169,-0.46886 8.5,-1.05385 z m 264.23471,-5.68638 c 17.56506,-10.33383 38.06379,-35.70731 61.60085,-76.25 10.89581,-18.76808 10.90333,-18.78443 9.4488,-20.53703 -1.70511,-2.05453 -6.99145,-1.81921 -13.08455,0.58247 -25.78378,10.16302 -74.8522,66.99754 -77.55654,89.83148 -0.52197,4.40717 -0.30107,5.24109 1.99702,7.53918 3.93462,3.93463 9.55788,3.56194 17.59442,-1.1661 z M 539.0646,698.41604 c 4.01821,-1.44123 10.44179,-4.48345 14.2746,-6.76048 12.78995,-7.59837 25.91955,-23.41756 25.91955,-31.22916 0,-10.30398 -24.13218,-5.88775 -45.1219,8.25739 -12.02636,8.10467 -27.82937,26.13729 -27.86872,31.80068 -0.008,1.0845 2.50136,1.27181 12.74062,0.9512 10.56778,-0.33089 14.00042,-0.84771 20.05585,-3.01963 z m 667.6941,31.88483 c -14.835,-4.8808 -21.5953,-16.8751 -18.5787,-32.96308 2.8821,-15.3709 19.6135,-41.95225 38.0737,-60.48818 27.0983,-27.20936 50.9934,-40.21812 73.8669,-40.21401 10.5253,0.002 14.7953,1.77349 17.4705,7.24845 1.5903,3.25454 2.2882,3.75 5.2821,3.75 4.8939,0 10.1877,2.47176 11.5102,5.3743 1.9636,4.30966 2.1557,3.92654 -19.0999,38.10209 -12.7614,20.51828 -21.9507,39.40559 -22.6988,46.6543 -0.5004,4.84806 -0.2889,5.9064 1.5472,7.74249 8.3922,8.39214 28.2287,-8.05762 58.0271,-48.11982 11.1704,-15.0179 13.856,-17.00755 17.2685,-12.79333 2.1121,2.60837 2.3537,6.72934 0.6299,10.74292 -0.6607,1.53837 -4.4439,7.52205 -8.407,13.29705 -25.0098,36.44396 -51.3113,56.99282 -69.8075,54.53923 -13.351,-1.77108 -20.5126,-9.23848 -20.5622,-21.44028 l -0.022,-5.40104 -9.75,9.45988 c -11.1266,10.79558 -23.0378,19.93502 -29.9876,23.00948 -5.9292,2.62293 -18.951,3.4115 -24.7624,1.49955 z m 22.5,-16.39332 c 8.5536,-4.70577 29.551,-25.78593 41.1116,-41.2735 8.4659,-11.34168 30.7174,-44.95651 34.7937,-52.56208 4.1046,-7.65818 2.3142,-9.4994 -7.313,-7.52088 -12.7885,2.62822 -28.3826,13.70524 -48.1192,34.18065 -25.4147,26.3662 -39.3524,47.08665 -40.2777,59.87885 -0.9032,12.48541 5.8506,14.97381 19.8046,7.29696 z M 1111.5532,582.63543 c -4.1261,-1.08138 -13.3148,-5.09538 -21.5,-9.39208 -16.36,-8.58789 -27.054,-12.90965 -44.7945,-18.10287 -16.7234,-4.8955 -24.3352,-8.65238 -30.668,-15.13642 -5.6458,-5.78073 -10.9304,-15.52672 -11.9142,-21.97263 l -0.6262,-4.10263 7.3542,-0.6485 c 9.7571,-0.86039 27.1519,0.77201 36.6743,3.44167 9.3375,2.61781 21.3736,8.44314 29.5808,14.31677 8.8904,6.36263 24.6592,23.12037 36.3738,38.65496 5.624,7.4578 10.2253,13.8703 10.2253,14.25 0,1.08742 -2.9318,0.72914 -10.7055,-1.30827 z m 62.071,-0.57147 c -32.3142,-5.4285 -62.6887,-27.03339 -86.2637,-61.35797 -2.806,-4.08544 -5.1018,-7.86573 -5.1018,-8.40065 0,-0.61443 5.6158,-0.7465 15.25,-0.35863 20.4547,0.82348 28.6512,3.1216 40.25,11.28513 7.9726,5.61126 13.4566,11.47739 24.2926,25.98527 4.9637,6.64568 13.8402,17.10818 19.7255,23.25 l 10.7006,11.16694 -5.3593,-0.10178 c -2.9477,-0.056 -9.0199,-0.71672 -13.4939,-1.46831 z m 55.6737,-10.51703 c -12.2832,-1.18258 -17.4305,-2.57534 -27.7318,-7.5037 -7.3926,-3.53678 -10.9655,-6.08507 -18.2466,-13.01401 -12.4349,-11.83344 -23.0285,-28.40591 -24.7031,-38.64517 -0.3373,-2.0625 -1.1183,-3.75927 -1.7355,-3.7706 -0.6172,-0.0113 -7.6472,-0.44342 -15.6222,-0.9602 -7.975,-0.51678 -29.8,-1.40987 -48.5,-1.98464 -53.2484,-1.63665 -93.48814,0.44404 -133.57066,6.9066 -12.78249,2.06093 -53.05862,10.36925 -56.17929,11.58888 -0.9625,0.37616 -1.75,0.41581 -1.75,0.0881 0,-1.73342 23.19084,-11.96822 41.47996,-18.30633 20.3839,-7.06405 52.17081,-12.56991 83.01999,-14.38003 36.1022,-2.11835 113.9236,-1.13075 130,1.64977 2.8125,0.48643 3.1854,0.15622 5.9642,-5.28134 1.9027,-3.72308 6.3791,-9.23389 12.5,-15.38843 8.1533,-8.19808 10.9132,-10.26727 19.0358,-14.27202 13.8131,-6.81032 25.1392,-8.84184 37.1136,-6.65691 5.6599,1.03276 22.8993,7.04477 22.8685,7.97511 -0.01,0.29812 -3.3318,1.59048 -7.382,2.87193 -8.7071,2.75483 -14.1194,6.25077 -25.6001,16.53573 -10.4466,9.35866 -17.4611,13.20068 -27.9371,15.30186 -4.4346,0.88943 -8.0629,1.91294 -8.0629,2.27445 0,0.36152 4.2347,1.84755 9.4105,3.30229 5.1757,1.45474 13.0822,4.09593 17.5699,5.86931 l 8.1594,3.22433 5.1801,-2.27273 c 13.0083,-5.70727 18.0016,-7.02282 26.6801,-7.02927 17.411,-0.0129 31.7225,5.95285 57.5,23.96889 15.7785,11.02762 27.8363,17.99524 31.1417,17.99524 3.3797,0 0.3744,1.16857 -8.9313,3.47287 -29.8454,7.39031 -49.8524,8.15745 -68.3659,2.62139 -13.0625,-3.90607 -26.563,-13.95502 -37.9915,-28.27859 l -5.4381,-6.81567 -14.2074,0.0153 c -7.8141,0.008 -14.8171,0.40163 -15.5623,0.87379 -1.0013,0.63453 0.5141,2.34964 5.8096,6.57484 7.1375,5.69483 15.425,15.27835 23.2745,26.9141 2.2715,3.36708 8.3241,10.3879 13.4503,15.60184 5.1263,5.21393 9.3204,9.60143 9.3204,9.75 0,0.31474 -0.7085,0.26635 -11.9608,-0.817 z M 996.25875,481.02839 c 0,-9.10639 4.84715,-22.54353 11.72885,-32.51462 9.0932,-13.17547 28.631,-25.54555 51.7726,-32.77922 20.4793,-6.40146 62.5467,-10.97327 62.4794,-6.79014 -0.011,0.6543 -5.4931,4.78964 -12.1834,9.18964 -14.8757,9.78326 -20.2845,14.64375 -31.8635,28.63363 -10.9723,13.25686 -20.237,20.85675 -29.434,24.14478 -5.4112,1.9346 -50.28359,14.72159 -51.66126,14.72159 -0.46128,0 -0.83869,-2.07255 -0.83869,-4.60566 z m 78.39825,-0.6354 c 1.1956,-5.97808 7.7778,-17.91218 13.6292,-24.71077 18.3975,-21.37567 45.2307,-33.04817 75.9725,-33.04817 14.7911,0 39.8061,4.67273 37.3744,6.98143 -1.2739,1.20946 -7.8647,4.85214 -15.8744,8.77359 -10.3192,5.05225 -16.5901,10.03232 -30.5,24.22177 -8.2752,8.44158 -14.2153,13.61796 -17.5753,15.31558 -8.4713,4.28011 -19.1409,5.70763 -42.6601,5.70763 h -21.0146 z"
           id="path3" />
      </g>
    </g>
  </g>
</svg>
