<?xml version="1.0" encoding="UTF-8" standalone="no"?>
<!-- Created with Inkscape (http://www.inkscape.org/) -->

<svg
   width="40mm"
   height="40mm"
   viewBox="0 0 40 40"
   version="1.1"
   id="svg1"
   xml:space="preserve"
   inkscape:version="1.4.2 (f4327f4, 2025-05-13)"
   sodipodi:docname="Tasty Pinch New Logo.svg"
   xmlns:inkscape="http://www.inkscape.org/namespaces/inkscape"
   xmlns:sodipodi="http://sodipodi.sourceforge.net/DTD/sodipodi-0.dtd"
   xmlns="http://www.w3.org/2000/svg"
   xmlns:svg="http://www.w3.org/2000/svg"><sodipodi:namedview
     id="namedview1"
     pagecolor="#ffffff"
     bordercolor="#cccccc"
     borderopacity="1"
     inkscape:showpageshadow="0"
     inkscape:pageopacity="1"
     inkscape:pagecheckerboard="0"
     inkscape:deskcolor="#d1d1d1"
     inkscape:document-units="mm"
     inkscape:zoom="4.56"
     inkscape:cx="75"
     inkscape:cy="84.100877"
     inkscape:window-width="1920"
     inkscape:window-height="1051"
     inkscape:window-x="-9"
     inkscape:window-y="-9"
     inkscape:window-maximized="1"
     inkscape:current-layer="g3" /><defs
     id="defs1" /><g
     inkscape:label="Layer 1"
     inkscape:groupmode="layer"
     id="layer1"><g
       id="g3"
       transform="matrix(0.76395632,0,0,0.76395632,-84.543223,-35.951292)"
       style="stroke-width:0.916283;stroke-dasharray:none"
       inkscape:label="Tasty Pinch"><rect
         style="opacity:1;fill:#fff0c4;fill-opacity:1;stroke:#761e1a;stroke-width:0.916283;stroke-dasharray:none;stroke-opacity:1"
         id="rect3"
         width="22.810923"
         height="21.928844"
         x="125.43904"
         y="62.274441"
         inkscape:label="Rectangle" /><path
         style="fill:#761e1a;fill-opacity:1;stroke:#000000;stroke-width:0;stroke-linecap:round;stroke-linejoin:miter;stroke-dasharray:none;stroke-opacity:1"
         d="m 139.95712,82.629881 c -0.0909,-0.01202 -0.24525,-0.04674 -0.34309,-0.07715 -0.0979,-0.03041 -0.25796,-0.09658 -0.35581,-0.147054 -0.11379,-0.0587 -0.24264,-0.156237 -0.35758,-0.270697 -0.11297,-0.112503 -0.21816,-0.249705 -0.28334,-0.369545 -0.057,-0.104834 -0.13331,-0.2821 -0.16955,-0.393923 -0.0362,-0.111823 -0.083,-0.286199 -0.10387,-0.387501 -0.0209,-0.101302 -0.0514,-0.318595 -0.0678,-0.482874 -0.0164,-0.164278 -0.0297,-0.624627 -0.0297,-1.022998 0,-0.53566 0.0112,-0.804574 0.0426,-1.03248 0.0233,-0.169493 0.0653,-0.398223 0.0933,-0.508288 0.028,-0.110065 0.10708,-0.314483 0.17582,-0.454262 0.0882,-0.179353 0.17407,-0.307688 0.29179,-0.436089 0.0917,-0.10007 0.24246,-0.229738 0.33496,-0.288151 0.0925,-0.05841 0.24404,-0.13483 0.33678,-0.169815 0.0927,-0.03499 0.25255,-0.07972 0.35512,-0.09942 0.10257,-0.01969 0.28741,-0.03581 0.41075,-0.03581 0.12334,0 0.30818,0.01641 0.41075,0.03646 0.10257,0.02005 0.255,0.06041 0.33873,0.08968 0.0837,0.02927 0.22749,0.09793 0.31946,0.152567 0.092,0.05464 0.24355,0.180244 0.33682,0.279121 0.10113,0.107201 0.20629,0.252644 0.26049,0.360286 0.05,0.09928 0.11233,0.264249 0.1385,0.366595 0.0262,0.102347 0.0603,0.301889 0.0759,0.443427 0.021,0.190902 0.0209,0.279879 -4.8e-4,0.344633 -0.0158,0.04801 -0.0533,0.104481 -0.0833,0.125491 -0.0438,0.03066 -0.14773,0.0382 -0.5269,0.0382 -0.33858,0 -0.48424,-0.009 -0.5143,-0.03177 -0.0231,-0.01747 -0.0532,-0.08323 -0.0669,-0.146133 -0.0138,-0.0629 -0.0374,-0.19912 -0.0525,-0.302711 -0.0151,-0.10359 -0.0484,-0.235691 -0.074,-0.293556 -0.0256,-0.05787 -0.083,-0.146775 -0.12764,-0.197575 -0.052,-0.05925 -0.12752,-0.107783 -0.21059,-0.135377 -0.0932,-0.03094 -0.17147,-0.03863 -0.27902,-0.02739 -0.0822,0.0086 -0.18238,0.03263 -0.22256,0.05341 -0.0402,0.02078 -0.11523,0.08668 -0.16677,0.146456 -0.0515,0.05977 -0.1166,0.153067 -0.14456,0.207323 -0.028,0.05425 -0.067,0.151465 -0.0868,0.216022 -0.0198,0.06456 -0.0487,0.294643 -0.0642,0.511299 -0.0165,0.231351 -0.0226,0.692847 -0.0147,1.118235 0.007,0.39837 0.0258,0.804365 0.0408,0.90221 0.015,0.09785 0.0517,0.255128 0.0815,0.349515 0.0354,0.112258 0.0885,0.210587 0.15336,0.284294 0.0545,0.06197 0.14174,0.138986 0.19376,0.171137 0.0767,0.0474 0.13063,0.05846 0.28518,0.05847 0.15569,7e-6 0.21391,-0.01209 0.31768,-0.066 0.0766,-0.03978 0.15509,-0.107202 0.1976,-0.169674 0.0388,-0.05702 0.0931,-0.191962 0.12072,-0.299879 0.0276,-0.107917 0.0502,-0.240129 0.0502,-0.293804 0,-0.06371 0.0176,-0.115241 0.0508,-0.148421 0.0473,-0.04733 0.0847,-0.05083 0.54298,-0.05083 0.4518,0 0.49739,0.0041 0.55604,0.05026 0.0351,0.02764 0.0698,0.08128 0.0771,0.119196 0.007,0.03792 0.003,0.143961 -0.01,0.235655 -0.0124,0.09169 -0.0411,0.246772 -0.0637,0.344617 -0.0226,0.09785 -0.0847,0.269393 -0.13813,0.381216 -0.0534,0.111824 -0.14653,0.261218 -0.20694,0.331987 -0.0604,0.07077 -0.1613,0.170977 -0.2242,0.222682 -0.0629,0.05171 -0.20155,0.139447 -0.30812,0.194981 -0.10657,0.05553 -0.28955,0.12408 -0.40663,0.152325 -0.11708,0.02825 -0.32724,0.05629 -0.46702,0.06231 -0.13978,0.006 -0.32848,0.0011 -0.41934,-0.01089 z m -13.05606,-0.170767 c -0.0423,-0.06459 -0.0455,-0.237652 -0.0523,-2.857739 -0.006,-2.422734 -0.002,-2.800866 0.0305,-2.879475 0.0225,-0.05395 0.0646,-0.100692 0.10423,-0.115745 0.0395,-0.01504 0.43861,-0.02525 0.9867,-0.02525 0.50616,0 1.01234,0.01154 1.12486,0.02565 0.11251,0.01411 0.27232,0.04306 0.35513,0.06434 0.0828,0.02128 0.23383,0.07796 0.3356,0.125955 0.10177,0.048 0.2484,0.136268 0.32584,0.196158 0.0774,0.05989 0.19262,0.177342 0.25596,0.261004 0.0633,0.08366 0.14243,0.205926 0.17576,0.271697 0.0333,0.06577 0.0864,0.208897 0.11784,0.318054 0.0501,0.173785 0.0573,0.256947 0.0574,0.668636 1.6e-4,0.375827 -0.009,0.503313 -0.0457,0.63536 -0.0252,0.09086 -0.0958,0.268121 -0.15678,0.393923 -0.0633,0.130676 -0.16662,0.290867 -0.24089,0.373677 -0.0715,0.07972 -0.21473,0.201612 -0.31828,0.270869 -0.10354,0.06926 -0.25464,0.150866 -0.33576,0.181354 -0.0811,0.03049 -0.24471,0.07723 -0.36352,0.103879 -0.13843,0.03105 -0.37356,0.05449 -0.65464,0.06528 -0.28008,0.01075 -0.44738,0.0274 -0.46287,0.04606 -0.0141,0.01697 -0.0273,0.408589 -0.0316,0.933686 -0.007,0.848027 -0.0103,0.907795 -0.0557,0.957925 -0.0463,0.05108 -0.072,0.05347 -0.57759,0.05347 -0.52918,0 -0.52918,0 -0.57424,-0.06876 z m 2.02006,-3.066038 c 0.0726,-0.01883 0.17767,-0.06589 0.23349,-0.104577 0.0558,-0.03869 0.13636,-0.124669 0.17897,-0.191074 0.0572,-0.08907 0.0854,-0.174935 0.10759,-0.327327 0.0227,-0.155726 0.0231,-0.262188 0.002,-0.432431 -0.0157,-0.124215 -0.0518,-0.271515 -0.0803,-0.327333 -0.0285,-0.05582 -0.0894,-0.133253 -0.13549,-0.172073 -0.046,-0.03882 -0.12374,-0.08818 -0.17266,-0.109696 -0.0677,-0.02979 -0.18893,-0.03947 -0.50829,-0.04062 -0.41934,-0.0015 -0.41934,-0.0015 -0.42644,0.811748 -0.004,0.447293 -8.4e-4,0.838993 0.007,0.870443 0.0135,0.05558 0.023,0.05718 0.33831,0.05718 0.18972,0 0.37915,-0.01421 0.45636,-0.03424 z m 2.47912,3.073481 c -0.0713,-0.06131 -0.0713,-0.06131 -0.0713,-0.819614 0,-0.417065 0.003,-1.699471 0.006,-2.84979 0.006,-2.091489 0.006,-2.091489 0.0702,-2.15532 0.0638,-0.06383 0.0638,-0.06383 0.58635,-0.05603 0.49119,0.0073 0.52432,0.01085 0.55247,0.05863 0.0165,0.02796 0.0357,0.07942 0.0427,0.114365 0.007,0.03495 0.007,1.325424 0,2.867731 -0.0127,2.804195 -0.0127,2.804195 -0.0727,2.852765 -0.0545,0.04408 -0.10549,0.04857 -0.55135,0.04857 -0.48271,0 -0.4926,-0.0011 -0.56266,-0.06131 z m 2.1372,0.04186 c -0.0154,-0.01027 -0.0411,-0.04365 -0.0572,-0.07418 -0.0215,-0.04087 -0.0292,-0.803922 -0.0292,-2.892042 0,-2.836531 0,-2.836531 0.0643,-2.900881 0.0644,-0.06435 0.0644,-0.06435 0.54006,-0.05603 0.42386,0.0074 0.48531,0.01397 0.56386,0.06011 0.0667,0.03918 0.11618,0.107522 0.20331,0.280771 0.0633,0.125942 0.22022,0.445733 0.34862,0.710646 0.1284,0.264914 0.37216,0.767573 0.54169,1.117021 0.16953,0.349448 0.35491,0.735429 0.41195,0.857736 0.057,0.122307 0.11894,0.222376 0.13757,0.222376 0.0278,0 0.0351,-0.281702 0.0408,-1.565196 0.007,-1.565196 0.007,-1.565196 0.08,-1.628059 0.0729,-0.06266 0.0746,-0.06284 0.54231,-0.05497 0.46921,0.0079 0.46921,0.0079 0.53093,0.0797 0.0617,0.07181 0.0617,0.07181 0.0549,2.905799 -0.007,2.833992 -0.007,2.833992 -0.0781,2.895324 -0.0699,0.06016 -0.0805,0.06133 -0.55188,0.06133 -0.48057,0 -0.48057,0 -0.57519,-0.0826 -0.077,-0.06721 -0.19235,-0.281512 -0.61905,-1.150002 -0.28844,-0.587072 -0.62577,-1.27612 -0.74962,-1.531216 -0.12384,-0.255098 -0.24023,-0.463814 -0.25863,-0.463814 -0.0273,0 -0.0334,0.281193 -0.0334,1.526127 0,1.289702 -0.006,1.537263 -0.0372,1.598026 -0.0204,0.03955 -0.0557,0.07901 -0.0783,0.08769 -0.0226,0.0087 -0.24892,0.01561 -0.50288,0.0154 -0.25395,-1.93e-4 -0.47431,-0.0088 -0.48969,-0.01906 z m 9.42897,-0.0053 c -0.0292,-0.01182 -0.0666,-0.05398 -0.083,-0.09369 -0.0224,-0.05414 -0.0282,-0.780128 -0.0231,-2.901804 0.007,-2.8296 0.007,-2.8296 0.0667,-2.87818 0.0545,-0.04409 0.10545,-0.04858 0.55135,-0.04858 0.48271,0 0.4926,0.0011 0.56265,0.06132 0.0713,0.06132 0.0713,0.06132 0.0785,1.122971 0.005,0.718891 0.0161,1.072433 0.0349,1.095038 0.0215,0.02593 0.16856,0.03338 0.6583,0.03338 0.34822,0 0.65979,-0.0111 0.69579,-0.02479 0.0652,-0.02478 0.0652,-0.02478 0.0652,-0.949312 0,-0.50849 0.007,-0.992615 0.0158,-1.075836 0.009,-0.08322 0.032,-0.173529 0.0519,-0.200689 0.0327,-0.04487 0.0784,-0.05057 0.49882,-0.06237 0.33139,-0.0093 0.4865,-0.0041 0.5463,0.01815 0.0571,0.02127 0.0953,0.05934 0.12072,0.120183 0.0319,0.07632 0.0372,0.481909 0.0372,2.837132 0,2.428112 -0.005,2.757738 -0.0394,2.831 -0.0216,0.0456 -0.0679,0.09594 -0.10285,0.111852 -0.0398,0.01812 -0.22993,0.02894 -0.50874,0.02894 -0.27032,0 -0.46538,-0.01079 -0.49653,-0.02746 -0.0282,-0.0151 -0.0675,-0.0662 -0.0873,-0.113549 -0.0291,-0.06965 -0.036,-0.29217 -0.036,-1.165201 0,-0.947126 -0.005,-1.083998 -0.0399,-1.11905 -0.0342,-0.03415 -0.1309,-0.03994 -0.66783,-0.03994 -0.52715,0 -0.63695,0.0063 -0.68437,0.03956 -0.0565,0.03956 -0.0565,0.03956 -0.0565,1.165635 0,1.100734 -0.001,1.127579 -0.0527,1.193036 -0.0527,0.06696 -0.0527,0.06696 -0.55276,0.06535 -0.27505,-8.65e-4 -0.52401,-0.01128 -0.55323,-0.0231 z m 0.44707,-6.590354 c -0.0398,-0.02003 -0.11866,-0.131527 -0.21099,-0.298245 -0.0811,-0.146441 -0.1989,-0.34418 -0.26177,-0.439417 -0.0629,-0.09524 -0.20071,-0.263578 -0.30629,-0.374086 -0.10558,-0.110509 -0.28926,-0.284188 -0.40818,-0.385955 -0.11891,-0.101768 -0.29002,-0.276524 -0.38023,-0.388347 -0.0902,-0.111823 -0.22426,-0.300525 -0.29789,-0.419338 -0.0736,-0.118812 -0.19582,-0.333242 -0.27155,-0.476511 -0.0757,-0.143269 -0.14627,-0.260493 -0.15675,-0.260498 -0.0105,-5e-6 -0.0191,0.01203 -0.0191,0.02674 0,0.01471 -0.10557,0.286326 -0.2346,0.603591 -0.23459,0.576845 -0.23459,0.576845 -0.2432,1.364691 -0.007,0.643499 -0.0155,0.797159 -0.046,0.838675 -0.0333,0.04526 -0.0724,0.05176 -0.35654,0.05931 -0.17553,0.0047 -0.3464,0.0016 -0.37971,-0.0067 -0.0333,-0.0084 -0.0779,-0.04878 -0.0992,-0.08981 -0.032,-0.0619 -0.0386,-0.205658 -0.0386,-0.8435 0,-0.768888 0,-0.768888 -0.16392,-1.138557 -0.0901,-0.203317 -0.2627,-0.621271 -0.38345,-0.928785 -0.12074,-0.307514 -0.27571,-0.704424 -0.34437,-0.882021 -0.0687,-0.177598 -0.12484,-0.349818 -0.12484,-0.382712 0,-0.03289 0.0162,-0.08201 0.0361,-0.10914 0.0319,-0.04361 0.0748,-0.05037 0.36972,-0.05827 0.21426,-0.0057 0.35823,0.0015 0.40234,0.02027 0.0378,0.01606 0.0865,0.0544 0.10833,0.08518 0.0218,0.03078 0.0892,0.198926 0.14982,0.37365 0.0606,0.174724 0.17793,0.500664 0.26073,0.72431 0.0828,0.223648 0.161,0.417304 0.17378,0.430351 0.0128,0.01305 0.0293,0.01767 0.0367,0.01028 0.007,-0.0074 0.1048,-0.279004 0.21645,-0.603577 0.11165,-0.324573 0.203,-0.628063 0.203,-0.674422 0,-0.04636 -0.0517,-0.211994 -0.11478,-0.368078 -0.0631,-0.156085 -0.1774,-0.406171 -0.25395,-0.555747 -0.0765,-0.149575 -0.17621,-0.340504 -0.22148,-0.424286 -0.0636,-0.117701 -0.0842,-0.189921 -0.0906,-0.31768 -0.006,-0.126995 0.003,-0.185982 0.0406,-0.254299 0.0306,-0.0556 0.094,-0.11212 0.169,-0.150752 0.12003,-0.0618 0.12003,-0.0618 0.0351,-0.105446 -0.0467,-0.024 -0.1397,-0.09194 -0.20668,-0.150962 -0.067,-0.05902 -0.14418,-0.151216 -0.17155,-0.204868 -0.029,-0.0568 -0.0497,-0.148398 -0.0497,-0.219281 0,-0.07743 0.0189,-0.152505 0.0516,-0.206295 0.036,-0.05898 0.0994,-0.105942 0.20957,-0.155222 0.0869,-0.03886 0.25323,-0.09595 0.3696,-0.126866 0.11636,-0.03091 0.38539,-0.08896 0.59784,-0.128999 0.21245,-0.04003 0.50894,-0.086 0.65887,-0.102141 0.20251,-0.0218 0.33958,-0.0221 0.5331,-0.0012 0.14327,0.01551 0.33118,0.05026 0.41758,0.07724 0.0864,0.02698 0.22936,0.08518 0.31768,0.129342 0.0883,0.04416 0.19851,0.10878 0.24486,0.143595 0.0463,0.03481 0.0908,0.05671 0.0989,0.04866 0.008,-0.0081 -0.006,-0.114995 -0.0303,-0.237649 -0.0247,-0.122655 -0.0507,-0.326746 -0.0577,-0.453537 -0.009,-0.16129 2.9e-4,-0.29487 0.0306,-0.444752 0.0241,-0.119148 0.0789,-0.281019 0.12346,-0.364728 0.0441,-0.08278 0.13519,-0.204706 0.20249,-0.270952 0.0673,-0.06625 0.17093,-0.143277 0.23029,-0.171181 0.0594,-0.0279 0.15891,-0.05731 0.22122,-0.06534 0.0644,-0.0083 0.1517,-0.0011 0.20223,0.01671 0.0658,0.02315 0.10386,0.06088 0.14614,0.144716 0.0314,0.06237 0.0572,0.148142 0.0571,0.190608 -3e-5,0.04247 0.0183,0.177274 0.0408,0.299572 0.0408,0.22236 0.0408,0.22236 0.16539,0.11035 0.0685,-0.06161 0.17802,-0.130217 0.24333,-0.15247 0.0653,-0.02225 0.16531,-0.04029 0.22222,-0.04009 0.0569,2.02e-4 0.13174,0.01467 0.16626,0.03214 0.0345,0.01747 0.0871,0.06793 0.11693,0.112129 0.0319,0.04734 0.0668,0.162075 0.085,0.279188 0.017,0.109352 0.0656,0.387525 0.10799,0.61816 0.0424,0.230636 0.0808,0.423214 0.0853,0.427952 0.005,0.0047 0.051,-0.03878 0.10334,-0.09671 0.0523,-0.05793 0.14186,-0.132589 0.19894,-0.165912 0.0571,-0.03332 0.16293,-0.06836 0.23522,-0.07785 0.0783,-0.01029 0.18366,-0.0047 0.26068,0.01374 0.083,0.01992 0.14735,0.05402 0.17989,0.09539 0.0362,0.04598 0.0506,0.10303 0.0506,0.199586 0,0.07436 -0.0579,0.430208 -0.12866,0.790772 -0.0708,0.360564 -0.22018,1.090157 -0.33203,1.621318 -0.11186,0.531161 -0.2603,1.205913 -0.32987,1.499448 -0.0696,0.293537 -0.15564,0.67094 -0.19127,0.838675 -0.047,0.221426 -0.0618,0.354485 -0.0538,0.485708 0.008,0.131721 0.032,0.225616 0.0884,0.346239 0.0426,0.09103 0.16622,0.307046 0.27471,0.48004 0.13626,0.217269 0.20077,0.345971 0.20863,0.416192 0.009,0.07658 -0.002,0.118195 -0.0415,0.168691 -0.0291,0.03687 -0.0825,0.07446 -0.11867,0.08354 -0.0449,0.01127 -0.0929,-2.88e-4 -0.15128,-0.03635 -0.047,-0.02907 -0.14077,-0.129563 -0.20831,-0.223319 -0.0675,-0.09376 -0.14705,-0.205472 -0.17671,-0.248258 -0.0297,-0.04279 -0.0879,-0.145714 -0.12941,-0.228729 -0.0415,-0.08302 -0.10281,-0.230993 -0.13622,-0.328838 -0.0528,-0.154712 -0.0605,-0.222622 -0.0588,-0.520996 0.002,-0.331702 0.008,-0.367144 0.17321,-1.067404 0.0942,-0.39837 0.18898,-0.845869 0.21063,-0.994442 0.0359,-0.246377 0.0358,-0.289959 -0.002,-0.495581 -0.0227,-0.123996 -0.0928,-0.579979 -0.15586,-1.013294 -0.0631,-0.433316 -0.13193,-0.890775 -0.15303,-1.016576 -0.0211,-0.125801 -0.0913,-0.514642 -0.15596,-0.86409 -0.0647,-0.349447 -0.12159,-0.64017 -0.12647,-0.646049 -0.005,-0.0059 -0.0385,0.01699 -0.0748,0.05083 -0.0362,0.03383 -0.0863,0.101546 -0.11116,0.150469 -0.0249,0.04892 -0.0534,0.126576 -0.0633,0.172563 -0.01,0.04599 -0.0178,0.160351 -0.0174,0.254144 2.8e-4,0.09379 0.0188,0.255365 0.0409,0.359051 0.0222,0.103685 0.091,0.355288 0.15308,0.559116 0.062,0.203829 0.17463,0.547863 0.25021,0.76452 0.0756,0.216658 0.17897,0.500859 0.22976,0.631557 0.0508,0.130698 0.0923,0.260238 0.0923,0.287867 0,0.02763 -0.0334,0.08366 -0.0743,0.124521 -0.0469,0.04687 -0.1008,0.07437 -0.14613,0.0745 -0.057,1.83e-4 -0.11398,-0.04367 -0.27516,-0.211523 -0.11183,-0.116452 -0.3234,-0.31333 -0.47017,-0.437506 -0.14677,-0.124176 -0.34119,-0.294107 -0.43204,-0.377623 -0.0909,-0.08352 -0.34818,-0.331076 -0.57183,-0.55013 -0.22364,-0.219055 -0.47173,-0.450528 -0.5513,-0.514384 -0.0796,-0.06386 -0.21775,-0.150982 -0.30707,-0.19361 -0.0953,-0.04549 -0.26126,-0.09463 -0.40174,-0.11895 -0.1662,-0.02878 -0.30146,-0.03637 -0.44265,-0.02485 -0.11182,0.0091 -0.3863,0.04473 -0.60995,0.07913 -0.22364,0.03439 -0.5129,0.08957 -0.64279,0.122615 -0.12988,0.03304 -0.24384,0.06777 -0.25324,0.07717 -0.009,0.0094 -0.005,0.03655 0.01,0.06034 0.0149,0.02379 0.0937,0.07756 0.17515,0.119499 0.14257,0.07339 0.16057,0.07622 0.48036,0.07572 0.18274,-2.89e-4 0.49807,-0.006 0.70075,-0.01271 0.31983,-0.01058 0.38697,-0.0057 0.50829,0.03707 0.11938,0.04206 0.18668,0.09658 0.46112,0.37357 0.17674,0.178376 0.39262,0.419252 0.47974,0.53528 0.0871,0.116029 0.19983,0.296735 0.25048,0.401569 0.0879,0.181925 0.0921,0.202764 0.0921,0.457459 0,0.234501 -0.008,0.283978 -0.0663,0.408132 -0.0364,0.07771 -0.12794,0.203615 -0.20332,0.279801 -0.0763,0.07708 -0.2035,0.170559 -0.28688,0.210759 -0.13047,0.06291 -0.17316,0.07106 -0.33052,0.06311 -0.13652,-0.0069 -0.21638,-0.02717 -0.32662,-0.08295 -0.0834,-0.04221 -0.20941,-0.140081 -0.29419,-0.22855 -0.11937,-0.124554 -0.18347,-0.227596 -0.32877,-0.528485 -0.0993,-0.20557 -0.22563,-0.440018 -0.28079,-0.520995 -0.0552,-0.08098 -0.16971,-0.213249 -0.25455,-0.293938 -0.0848,-0.08069 -0.21488,-0.174928 -0.28897,-0.20942 -0.0752,-0.03499 -0.1818,-0.06282 -0.24122,-0.06296 -0.0586,-1.24e-4 -0.11272,0.0098 -0.1203,0.02205 -0.008,0.01227 0.0466,0.123771 0.12046,0.247791 0.0738,0.124019 0.18136,0.328418 0.23896,0.454219 0.0576,0.125802 0.19029,0.440305 0.29488,0.698896 0.10458,0.258592 0.24361,0.601686 0.30895,0.762432 0.0653,0.160746 0.19088,0.4425 0.27897,0.626121 0.0881,0.18362 0.21443,0.41775 0.28076,0.52029 0.0663,0.102538 0.18358,0.262972 0.26053,0.356518 0.077,0.09355 0.24103,0.258167 0.36461,0.365825 0.12357,0.107658 0.32017,0.294808 0.4369,0.415889 0.11672,0.12108 0.27004,0.305829 0.3407,0.410554 0.0707,0.104725 0.18709,0.307184 0.25871,0.449908 0.0786,0.156615 0.13,0.292431 0.12966,0.342559 -2.9e-4,0.04568 -0.0203,0.107452 -0.0445,0.137266 -0.0241,0.02981 -0.0689,0.06698 -0.0994,0.0826 -0.0305,0.01561 -0.0706,0.02822 -0.0889,0.02801 -0.0184,-1.92e-4 -0.062,-0.01477 -0.097,-0.03236 z m -0.61459,-4.491788 c 0.0557,-0.03395 0.10638,-0.09961 0.14933,-0.193423 0.0532,-0.116213 0.0623,-0.165444 0.0498,-0.270913 -0.008,-0.07089 -0.0463,-0.190267 -0.0843,-0.265283 -0.0379,-0.07502 -0.16253,-0.253012 -0.27683,-0.395547 -0.1143,-0.142536 -0.29999,-0.347115 -0.41265,-0.45462 -0.1532,-0.146182 -0.22866,-0.19993 -0.29928,-0.21318 -0.0519,-0.0097 -0.22718,-0.0098 -0.38942,-1.06e-4 -0.16224,0.0097 -0.34405,0.02432 -0.40402,0.03252 -0.10904,0.01492 -0.10904,0.01492 0.0254,0.09105 0.074,0.04187 0.21451,0.158488 0.31236,0.259141 0.0978,0.100654 0.23059,0.27349 0.29499,0.384082 0.0644,0.110592 0.13549,0.235386 0.15797,0.277319 0.0225,0.04193 0.0877,0.173454 0.14488,0.292266 0.0572,0.118812 0.14623,0.260272 0.19783,0.314356 0.0516,0.05408 0.12814,0.119801 0.17008,0.146038 0.0419,0.02624 0.12198,0.0477 0.1779,0.0477 0.0573,0 0.13844,-0.02243 0.18596,-0.0514 z m 3.17077,-1.452888 c 0.0329,-0.171958 0.0954,-0.505187 0.13894,-0.74051 0.0436,-0.235323 0.074,-0.433048 0.0677,-0.439389 -0.006,-0.0063 -0.0638,0.04665 -0.12778,0.117763 -0.0639,0.07111 -0.14185,0.194498 -0.17315,0.274195 -0.0434,0.110617 -0.0572,0.199024 -0.0581,0.373633 -6.7e-4,0.125802 0.0149,0.345778 0.0348,0.488838 0.0198,0.143059 0.0409,0.255161 0.047,0.249114 0.006,-0.006 0.0379,-0.151686 0.0708,-0.323644 z m -1.45003,-0.431419 c -0.0642,-0.200258 -0.18419,-0.63858 -0.26671,-0.97405 -0.0825,-0.33547 -0.18622,-0.792929 -0.23044,-1.016576 -0.0442,-0.223646 -0.0851,-0.411515 -0.0908,-0.417485 -0.006,-0.006 -0.0461,0.02262 -0.0897,0.06354 -0.0436,0.04091 -0.1024,0.12571 -0.13066,0.188433 -0.0346,0.07683 -0.0552,0.188778 -0.0631,0.343094 -0.008,0.163735 0.004,0.319629 0.0425,0.546683 0.0298,0.174696 0.0886,0.453216 0.13064,0.618933 0.042,0.165717 0.0929,0.333087 0.11295,0.371934 0.0201,0.03885 0.18274,0.208923 0.36145,0.377948 0.1787,0.169025 0.32844,0.297043 0.33274,0.284486 0.004,-0.01256 -0.0447,-0.186679 -0.10886,-0.386936 z m -10.62812,6.245813 c -0.10019,-0.01911 -0.26825,-0.07615 -0.37345,-0.126746 -0.10907,-0.05246 -0.24482,-0.144158 -0.31586,-0.21335 -0.0725,-0.07059 -0.1572,-0.190064 -0.20256,-0.285635 -0.0429,-0.09036 -0.0913,-0.232906 -0.10754,-0.316773 -0.0163,-0.08387 -0.0258,-0.197969 -0.0212,-0.253559 0.006,-0.07775 0.023,-0.108452 0.0719,-0.133052 0.0404,-0.02032 0.17492,-0.03211 0.36921,-0.03235 0.2287,-2.89e-4 0.31914,0.0091 0.35917,0.0371 0.0336,0.02357 0.0596,0.07781 0.07,0.146133 0.009,0.05976 0.0419,0.154405 0.073,0.210317 0.0374,0.06722 0.0949,0.12103 0.16981,0.158839 0.0623,0.03145 0.15991,0.05718 0.21689,0.05718 0.057,0 0.15462,-0.02573 0.21699,-0.05718 0.0828,-0.04177 0.12881,-0.08774 0.17058,-0.170578 0.0314,-0.06237 0.0571,-0.142423 0.057,-0.1779 0,-0.03548 -0.0125,-0.108887 -0.0275,-0.163131 -0.0166,-0.05979 -0.0741,-0.145229 -0.14599,-0.216964 -0.0652,-0.06509 -0.27221,-0.213435 -0.45995,-0.329666 -0.18774,-0.11623 -0.39975,-0.254477 -0.47114,-0.307214 -0.0714,-0.05274 -0.1889,-0.156244 -0.26114,-0.230015 -0.0755,-0.07711 -0.16864,-0.210798 -0.21909,-0.314497 -0.0483,-0.0992 -0.10022,-0.240973 -0.11547,-0.315044 -0.0153,-0.07407 -0.0277,-0.20033 -0.0277,-0.280573 0,-0.08024 0.0177,-0.214059 0.0392,-0.297368 0.0216,-0.08331 0.0638,-0.202937 0.0938,-0.265837 0.03,-0.0629 0.12388,-0.183771 0.20858,-0.268601 0.0849,-0.08499 0.21677,-0.184536 0.29379,-0.221725 0.0769,-0.03712 0.21412,-0.08663 0.30498,-0.110021 0.0982,-0.02528 0.25889,-0.04203 0.3962,-0.04129 0.12705,6.82e-4 0.30311,0.01972 0.39125,0.0423 0.0881,0.02258 0.21726,0.07209 0.28695,0.110016 0.0697,0.03793 0.17082,0.10922 0.22474,0.158423 0.0539,0.0492 0.13753,0.156286 0.18579,0.237963 0.0483,0.08168 0.10559,0.226891 0.12738,0.322697 0.0218,0.09581 0.0396,0.224423 0.0396,0.285815 0,0.09495 -0.01,0.116027 -0.0647,0.141115 -0.0392,0.01787 -0.20425,0.02949 -0.41885,0.02949 -0.35412,0 -0.35412,0 -0.36987,-0.06989 -0.009,-0.03844 -0.0263,-0.112257 -0.0393,-0.164038 -0.0129,-0.05178 -0.0542,-0.130533 -0.0916,-0.175003 -0.0374,-0.04447 -0.10537,-0.09645 -0.151,-0.11552 -0.0456,-0.01907 -0.12373,-0.03467 -0.17355,-0.03467 -0.0498,0 -0.12854,0.01586 -0.17494,0.03525 -0.0464,0.01938 -0.10942,0.07044 -0.14005,0.113466 -0.0306,0.04302 -0.0623,0.133643 -0.0703,0.201381 -0.0113,0.09565 -0.003,0.146624 0.039,0.228198 0.0295,0.05777 0.0966,0.147033 0.14911,0.198363 0.0525,0.05133 0.15841,0.135277 0.23529,0.186551 0.0769,0.05127 0.25986,0.164769 0.40663,0.252212 0.14677,0.08744 0.35043,0.227968 0.45259,0.312279 0.10215,0.08431 0.22312,0.212515 0.26881,0.284898 0.0457,0.07238 0.10371,0.183071 0.12892,0.245972 0.0279,0.06969 0.0508,0.209978 0.0585,0.359159 0.008,0.153312 5.8e-4,0.295776 -0.0196,0.381216 -0.0177,0.07503 -0.0698,0.21174 -0.11584,0.303798 -0.0479,0.09578 -0.13911,0.220797 -0.21331,0.292266 -0.0713,0.06869 -0.18362,0.156473 -0.24957,0.195075 -0.0659,0.0386 -0.19348,0.0932 -0.28339,0.121325 -0.0899,0.02813 -0.26146,0.05631 -0.38121,0.06264 -0.12872,0.0068 -0.29223,-0.0027 -0.39992,-0.02325 z m -5.99821,-0.04047 c -0.0305,-0.0123 -0.0677,-0.04514 -0.0826,-0.07296 -0.0184,-0.03431 -0.0272,-0.589046 -0.0275,-1.723259 -2.4e-4,-1.018683 -0.01,-1.687572 -0.0247,-1.710789 -0.0199,-0.03129 -0.0816,-0.03674 -0.34452,-0.03039 -0.19265,0.0046 -0.35513,-0.0038 -0.40782,-0.02118 -0.0555,-0.01833 -0.10247,-0.05769 -0.12828,-0.107613 -0.0326,-0.06295 -0.0385,-0.136332 -0.0297,-0.366497 0.009,-0.245682 0.0181,-0.292954 0.0593,-0.323097 0.0266,-0.01942 0.0989,-0.04225 0.16074,-0.05072 0.0619,-0.0085 0.60549,-0.01535 1.20809,-0.01527 0.67887,7.7e-5 1.13176,0.01018 1.19063,0.02653 0.0523,0.01451 0.10657,0.048 0.12072,0.07443 0.0141,0.02643 0.0257,0.181069 0.0257,0.343653 0,0.162584 -0.0116,0.317228 -0.0257,0.343654 -0.0142,0.02642 -0.0685,0.05992 -0.12072,0.07443 -0.0522,0.01451 -0.24082,0.02645 -0.41904,0.02653 -0.32403,1.54e-4 -0.32403,1.54e-4 -0.32403,1.716769 0,1.716627 0,1.716627 -0.0624,1.779008 -0.0599,0.05993 -0.0752,0.06232 -0.38757,0.06077 -0.17886,-8.64e-4 -0.35018,-0.01168 -0.38071,-0.02398 z m 1.66933,-0.02524 c -0.028,-0.02796 -0.0508,-0.07789 -0.0508,-0.110974 0,-0.03308 0.0976,-0.470525 0.21681,-0.972101 0.11924,-0.501575 0.27336,-1.146403 0.34249,-1.43295 0.0691,-0.286548 0.19048,-0.789525 0.26965,-1.117728 0.12857,-0.532977 0.1518,-0.60407 0.21746,-0.665404 0.0522,-0.04877 0.11194,-0.07338 0.20609,-0.0849 0.0729,-0.0089 0.2835,-0.01227 0.46796,-0.0074 0.3154,0.0083 0.33942,0.01253 0.40355,0.07169 0.0375,0.0346 0.0831,0.09776 0.10122,0.140358 0.0182,0.0426 0.0898,0.317076 0.15915,0.609945 0.0694,0.292869 0.20734,0.875584 0.30663,1.294922 0.0993,0.419337 0.23236,0.974006 0.29571,1.232598 0.0634,0.258591 0.13776,0.570114 0.16534,0.692272 0.0276,0.122159 0.0502,0.234185 0.0502,0.248947 0,0.01476 -0.0281,0.05491 -0.0624,0.08922 -0.0596,0.05957 -0.0767,0.06238 -0.37957,0.06238 -0.17445,0 -0.34591,-0.01093 -0.38104,-0.02428 -0.0351,-0.01335 -0.0816,-0.05134 -0.10326,-0.08441 -0.0217,-0.03307 -0.0671,-0.199014 -0.10094,-0.368755 -0.0338,-0.16974 -0.0688,-0.320455 -0.0778,-0.334922 -0.0103,-0.01661 -0.19178,-0.0263 -0.49277,-0.0263 -0.34213,0 -0.48823,0.009 -0.51804,0.03177 -0.0275,0.02104 -0.0636,0.147655 -0.107,0.374862 -0.0507,0.265478 -0.0775,0.353156 -0.11864,0.387569 -0.045,0.03767 -0.10716,0.04448 -0.40614,0.04448 -0.3191,0 -0.35787,-0.0049 -0.40382,-0.05083 z m 1.84047,-1.514875 c 0.0221,-0.0085 0.0402,-0.03914 0.0402,-0.06813 0,-0.02899 -0.0346,-0.236478 -0.0768,-0.461093 -0.0422,-0.224615 -0.0939,-0.499883 -0.11482,-0.611706 -0.0209,-0.111824 -0.0564,-0.283371 -0.0789,-0.381217 -0.0225,-0.09784 -0.0497,-0.187621 -0.0605,-0.199502 -0.0108,-0.01188 -0.0391,0.0453 -0.0629,0.127072 -0.0238,0.08177 -0.0991,0.428867 -0.1674,0.771326 -0.0683,0.34246 -0.12427,0.664816 -0.12445,0.716347 -3e-4,0.08674 0.006,0.09445 0.0823,0.103944 0.0454,0.0056 0.18173,0.01208 0.30289,0.01432 0.12116,0.0022 0.23839,-0.0029 0.2605,-0.01136 z m 5.30098,1.521189 c -0.089,-0.04444 -0.089,-0.04444 -0.0955,-1.775898 -0.006,-1.731461 -0.006,-1.731461 -0.3987,-1.749841 -0.3229,-0.01513 -0.39914,-0.0261 -0.43169,-0.06206 -0.0304,-0.03361 -0.0407,-0.113606 -0.0447,-0.346846 -0.003,-0.197983 0.006,-0.322615 0.0255,-0.359232 0.017,-0.031 0.0732,-0.06787 0.12567,-0.08245 0.0588,-0.01633 0.50651,-0.02639 1.17512,-0.02639 0.63839,0 1.11733,0.01034 1.17112,0.02528 0.0565,0.01568 0.10471,0.05087 0.12708,0.09266 0.0248,0.04639 0.0361,0.153926 0.0361,0.345284 0,0.272999 -0.001,0.278996 -0.0713,0.339247 -0.0643,0.05533 -0.0945,0.06134 -0.30778,0.06134 -0.13006,0 -0.28954,0.0073 -0.35439,0.01616 -0.11791,0.01616 -0.11791,0.01616 -0.11902,1.632875 -5.7e-4,0.889191 -0.011,1.667762 -0.023,1.730155 -0.0128,0.06645 -0.0451,0.132249 -0.078,0.15884 -0.0467,0.03778 -0.10568,0.04539 -0.35186,0.04536 -0.2307,-2.5e-5 -0.31538,-0.0098 -0.38476,-0.04447 z m 1.72948,-5.240379 c -0.0301,-0.03011 -0.0521,-0.08536 -0.0521,-0.130803 0,-0.04327 0.0242,-0.112721 0.0539,-0.154335 0.0296,-0.04161 0.14105,-0.150048 0.24761,-0.240965 0.11314,-0.09654 0.28942,-0.212806 0.42377,-0.279501 0.16468,-0.08175 0.26482,-0.115493 0.35245,-0.118759 0.10693,-0.004 0.12923,0.0044 0.17625,0.06649 0.0497,0.06555 0.0509,0.07633 0.0156,0.139155 -0.021,0.03746 -0.0665,0.0817 -0.10114,0.09831 -0.0346,0.01662 -0.14868,0.07051 -0.25352,0.119764 -0.10483,0.04925 -0.23236,0.121713 -0.28339,0.16102 -0.051,0.03931 -0.1654,0.135767 -0.25415,0.214353 -0.0887,0.07859 -0.1865,0.150649 -0.21724,0.16014 -0.039,0.01205 -0.0716,0.0015 -0.10801,-0.03487 z"
         id="path2"
         inkscape:label="Path" /></g></g></svg>
