<?xml version="1.0"?>
<svg version="1.1" id="svgRootInlined" width="853" height="851" viewBox="86.63732147216751 95.4459838867187 852.5851440429688 851.3781127929688" sodipodi:docname="TD SVG.svg" inkscape:version="1.4.2 (f4327f4, 2025-05-13)" xmlns:inkscape="http://www.inkscape.org/namespaces/inkscape" xmlns:sodipodi="http://sodipodi.sourceforge.net/DTD/sodipodi-0.dtd" xmlns="http://www.w3.org/2000/svg" xmlns:svg="http://www.w3.org/2000/svg">
  <defs id="defs1">
    <inkscape:path-effect effect="spiro" id="path-effect3" is_visible="true" lpeversion="1"/>
    <inkscape:path-effect effect="spiro" id="path-effect2" is_visible="true" lpeversion="1"/>
  </defs>
  <sodipodi:namedview id="namedview1" pagecolor="#ffffff" bordercolor="#000000" borderopacity="0.25" inkscape:showpageshadow="2" inkscape:pageopacity="0.0" inkscape:pagecheckerboard="0" inkscape:deskcolor="#d1d1d1" inkscape:zoom="0.81347656" inkscape:cx="400.13445" inkscape:cy="325.14766" inkscape:window-width="1920" inkscape:window-height="1051" inkscape:window-x="-9" inkscape:window-y="-9" inkscape:window-maximized="1" inkscape:current-layer="g1"/>
  <g inkscape:groupmode="layer" inkscape:label="Image" id="g1">
    <rect style="fill: rgb(238, 220, 41); fill-opacity: 1; stroke-width: 3; fill-rule: nonzero; stroke: rgb(0, 0, 0);" id="rect1" width="800" height="800" x="113.09484" y="116.78271" inkscape:label="Square Behind TD"/>
    <path style="fill: rgb(210, 40, 40); fill-opacity: 1; stroke: rgb(0, 0, 0); stroke-opacity: 1; stroke-width: 3; stroke-dasharray: none; stroke-dashoffset: 0;" d="m 419.65674,940.20232 c -6.62019,-2.11841 -12.35359,-8.61353 -13.81427,-15.64959 -1.97307,-9.50419 1.31056,-43.95566 6.99035,-73.34206 16.12051,-83.40515 51.53045,-192.53008 91.18284,-281.00359 9.43351,-21.04831 28.66618,-59.27576 37.73336,-75 18.27819,-31.69791 38.90638,-57.369 50.22838,-62.50754 11.07657,-5.02715 27.61651,0.65766 34.53819,11.87082 4.21446,6.82746 3.36234,9.6221 -6.80588,22.32079 -22.70035,28.34959 -50.90181,74.56806 -73.10896,119.81593 -24.88742,50.70901 -39.08543,85.89396 -59.11639,146.5 -11.51081,34.8273 -17.16552,54.2999 -22.68929,78.13299 -4.37888,18.89333 -16.1346,76.5901 -15.69483,77.02987 0.39446,0.39447 47.64256,-26.83694 69.67047,-40.15452 85.97817,-51.9805 158.80761,-110.63677 220.39982,-177.50834 29.94237,-32.50887 50.61951,-58.56139 71.82727,-90.5 36.18825,-54.49903 57.58561,-104.60108 66.41025,-155.5 2.57499,-14.85209 2.60049,-50.72883 0.045,-63.374 -2.63833,-13.05531 -6.21213,-23.57195 -9.91201,-29.16819 -5.09311,-7.70353 -17.58317,-19.57952 -24.38806,-23.18901 -7.91334,-4.19743 -27.14723,-9.71435 -45.38231,-13.01715 -13.31869,-2.41233 -16.78115,-2.6314 -42.5,-2.68897 -30.2576,-0.0677 -38.12952,0.67199 -69.90004,6.56851 -65.07557,12.07784 -112.51325,27.60471 -176.39207,57.73504 -36.00208,16.98144 -84.75861,44.79973 -121.22298,69.16438 l -11.51508,7.69412 -2.28742,23.88763 c -3.59292,37.52095 -4.11234,45.49943 -5.22476,80.25334 -2.06154,64.40626 0.7629,122.8963 9.15129,189.50973 3.52703,28.00867 3.3967,29.84537 -2.58794,36.46964 -4.90005,5.42378 -11.69156,8.50705 -19.789,8.98401 -10.39632,0.61236 -17.60288,-3.02228 -20.93701,-10.55964 -3.21089,-7.25874 -7.25073,-47.4206 -9.98542,-99.26944 -2.18543,-41.43506 -1.05795,-163.61877 1.82576,-197.85658 l 0.61962,-7.35658 -2.78098,1.82217 c -3.25453,2.13246 -11.74897,2.35796 -15.52594,0.41216 -11.53072,-5.94032 -13.89616,-18.66803 -5.02188,-27.02117 3.7842,-3.56197 18.70987,-12.83055 22.08158,-13.71227 1.47328,-0.38527 1.96154,-1.74861 2.37672,-6.63631 4.23367,-49.84118 9.19295,-82.4562 20.09897,-132.18233 3.5911,-16.37368 13.43906,-56.85728 16.10832,-66.21909 0.3883,-1.36186 0.20582,-2.25 -0.46229,-2.25 -2.88939,0 -89.83643,24.92447 -158.62945,45.47315 -64.69264,19.32388 -82.51558,24.43018 -87.79773,25.15418 -13.79249,1.89047 -28.312848,-11.97064 -24.804998,-23.67881 1.524129,-5.08707 5.061649,-10.02041 8.715448,-12.15435 6.87817,-4.01704 101.83508,-32.45079 175.88732,-52.66741 111.70466,-30.49592 228.23381,-59.47148 289.86473,-72.07633 85.99528,-17.58787 132.81865,-22.82455 193.63527,-21.65595 45.58866,0.876 68.50192,2.64756 74.82232,5.78498 13.24192,6.57322 11.94224,23.3204 -2.32232,29.92468 -3.6433,1.68679 -7.04434,1.85389 -38.13907,1.8739 -18.77649,0.0121 -42.17649,0.47764 -52,1.03458 -83.19633,4.71682 -173.96105,19.58285 -294.73343,48.27336 l -17.8725,4.24577 -1.79191,5.98412 c -22.51257,75.18142 -27.31339,92.40962 -33.39139,119.82801 -5.67642,25.60685 -7.87844,36.82658 -10.53072,53.65612 -1.17015,7.425 -2.29094,14.2875 -2.49065,15.25 -0.1997,0.9625 -0.2429,1.75 -0.096,1.75 0.1469,0 4.94227,-3.06272 10.65638,-6.80604 53.00801,-34.72566 117.1805,-68.20712 172.88929,-90.20354 31.39645,-12.39678 76.9532,-25.80927 112,-32.97424 36.74082,-7.51129 91.56038,-10.07301 120,-5.6076 13.93029,2.18725 37.36553,8.3209 45.45469,11.89675 27.22265,12.03391 48.77301,30.46718 66.28182,56.69467 9.99945,14.97877 16.89318,31.97689 21.2918,52.5 2.71345,12.66042 3.84683,49.32613 2.06148,66.69064 -4.51344,43.89842 -18.93917,83.44636 -46.33623,127.0301 -45.68425,72.67535 -117.23185,148.78668 -206.75356,219.94151 -64.4352,51.21524 -153.41761,109.46575 -217,142.05458 -19.70369,10.09903 -33.4404,13.37388 -43.11397,10.27841 z" id="path1" inkscape:label="TD Path"/>
  </g>
</svg>